<svg width="69" height="43" viewBox="0 0 69 43" fill="none" xmlns="http://www.w3.org/2000/svg">
<path d="M61.9314 2.18036H44.7074V6.97974H61.9993L61.9314 2.18036ZM58.2963 35.1974C56.9897 36.0648 55.4467 36.5049 53.8799 36.4568C52.8429 36.5651 51.7946 36.4578 50.8009 36.1415C49.8071 35.8252 48.8892 35.3068 48.1046 34.6187C46.654 32.9709 45.8989 30.823 45.9983 28.628H68.488C68.6501 26.3425 68.4553 24.0457 67.9105 21.8204C67.3835 19.7033 66.4613 17.7053 65.1927 15.9318C63.9158 14.2115 62.2665 12.8034 60.3686 11.8132C58.2571 10.77 55.9282 10.245 53.5742 10.2814C51.3602 10.2652 49.1655 10.6934 47.1194 11.5409C45.2459 12.3322 43.5482 13.4893 42.1255 14.9447C40.7068 16.4291 39.6082 18.1903 38.8981 20.1185C38.1361 22.2001 37.7563 24.4027 37.777 26.6198C37.7421 28.8683 38.1103 31.1049 38.8641 33.2232C39.5045 35.1413 40.5209 36.9119 41.8537 38.431C43.2327 39.9224 44.9275 41.0855 46.8137 41.8348C48.9169 42.6377 51.1539 43.0305 53.4043 42.9921C56.5618 43.0907 59.6791 42.2626 62.373 40.6094C65.0939 38.6722 67.0528 35.8425 67.9105 32.6105H60.4026C60.0007 33.6797 59.2611 34.5881 58.2963 35.1974ZM46.6438 21.1737C46.9082 20.325 47.3471 19.5413 47.9322 18.873C48.5174 18.2046 49.2357 17.6665 50.041 17.2933C51.1076 16.8123 52.2691 16.5796 53.4383 16.6125C54.2829 16.5403 55.1331 16.6519 55.9306 16.9398C56.7281 17.2277 57.454 17.685 58.0585 18.2804C59.2129 19.6962 59.9536 21.4044 60.1988 23.2159H46.1003C46.1552 22.5242 46.2805 21.8399 46.474 21.1737H46.6438ZM28.6724 19.5398C30.4015 18.8184 31.9039 17.6424 33.0209 16.136C34.0476 14.5362 34.5577 12.6584 34.4817 10.758C34.5483 9.02488 34.211 7.30008 33.4965 5.72033C32.8963 4.35171 31.9327 3.17436 30.7108 2.31651C29.4153 1.42462 27.9441 0.821093 26.3963 0.546531C24.5646 0.161605 22.6963 -0.0210217 20.8248 0.00192096H0.543335V42.8219H21.2665C23.1577 42.8233 25.0413 42.5831 26.8719 42.1071C28.607 41.6574 30.2509 40.9087 31.73 39.8946C33.1627 38.8998 34.3293 37.5672 35.1272 36.0143C36.0102 34.2776 36.4424 32.3461 36.3842 30.398C36.4485 27.9838 35.7727 25.6079 34.4477 23.5904C33.0229 21.5614 30.9096 20.1216 28.5026 19.5398H28.6724ZM9.95368 7.32013H18.7525C19.5609 7.31913 20.3678 7.38745 21.1646 7.52435C21.8982 7.63328 22.6027 7.88787 23.2369 8.27319C23.8495 8.62043 24.346 9.14153 24.6637 9.77087C25.0572 10.5256 25.2447 11.371 25.2073 12.2216C25.2706 12.9542 25.1587 13.6914 24.8811 14.3722C24.6034 15.0529 24.1679 15.6575 23.6106 16.136C22.3948 16.9735 20.9399 17.3916 19.4659 17.3273H9.95368V7.32013ZM26.3963 32.6445C26.0473 33.3382 25.5195 33.9258 24.8675 34.3464C24.1891 34.7692 23.4416 35.0688 22.6593 35.2314C21.7898 35.4264 20.9004 35.5178 20.0095 35.5037H9.81779V23.7606H20.0095C21.7584 23.6838 23.4856 24.1731 24.9355 25.1561C25.5905 25.7451 26.0979 26.4803 26.4166 27.3023C26.7353 28.1243 26.8564 29.0099 26.77 29.8874C26.8618 30.8231 26.7339 31.7673 26.3963 32.6445Z" fill="#F2F0EE"/>
</svg>
