<svg width="28" height="25" viewBox="0 0 28 25" fill="none" xmlns="http://www.w3.org/2000/svg">
<path d="M1.86667 5.10665H1.98973C2.1789 5.81114 2.61032 6.43581 3.21582 6.88196C3.82132 7.32812 4.5664 7.57033 5.33333 7.57033C6.10027 7.57033 6.84534 7.32812 7.45085 6.88196C8.05635 6.43581 8.48776 5.81114 8.67693 5.10665H26.1333C26.3632 5.10665 26.5836 5.0201 26.7462 4.86604C26.9087 4.71198 27 4.50304 27 4.28517C27 4.06729 26.9087 3.85835 26.7462 3.70429C26.5836 3.55023 26.3632 3.46368 26.1333 3.46368H8.67693C8.48776 2.75919 8.05635 2.13452 7.45085 1.68837C6.84534 1.24221 6.10027 1 5.33333 1C4.5664 1 3.82132 1.24221 3.21582 1.68837C2.61032 2.13452 2.1789 2.75919 1.98973 3.46368H1.86667C1.63681 3.46368 1.41637 3.55023 1.25384 3.70429C1.09131 3.85835 1 4.06729 1 4.28517C1 4.50304 1.09131 4.71198 1.25384 4.86604C1.41637 5.0201 1.63681 5.10665 1.86667 5.10665ZM5.33333 2.6422C5.67615 2.6422 6.01128 2.73856 6.29632 2.91909C6.58137 3.09962 6.80353 3.35622 6.93472 3.65643C7.06592 3.95664 7.10024 4.28699 7.03336 4.60569C6.96648 4.9244 6.8014 5.21715 6.55899 5.44692C6.31657 5.67669 6.00772 5.83317 5.67149 5.89656C5.33526 5.95996 4.98674 5.92742 4.67002 5.80307C4.35329 5.67872 4.08258 5.46813 3.89212 5.19795C3.70166 4.92776 3.6 4.61011 3.6 4.28517C3.6 3.84942 3.78262 3.43153 4.10768 3.12341C4.43274 2.8153 4.87362 2.6422 5.33333 2.6422ZM26.1333 11.6785H26.0103C25.8211 10.974 25.3897 10.3494 24.7842 9.9032C24.1787 9.45705 23.4336 9.21483 22.6667 9.21483C21.8997 9.21483 21.1547 9.45705 20.5492 9.9032C19.9436 10.3494 19.5122 10.974 19.3231 11.6785H1.86667C1.63681 11.6785 1.41637 11.7651 1.25384 11.9191C1.09131 12.0732 1 12.2821 1 12.5C1 12.7179 1.09131 12.9268 1.25384 13.0809C1.41637 13.2349 1.63681 13.3215 1.86667 13.3215H19.3231C19.5122 14.026 19.9436 14.6506 20.5492 15.0968C21.1547 15.543 21.8997 15.7852 22.6667 15.7852C23.4336 15.7852 24.1787 15.543 24.7842 15.0968C25.3897 14.6506 25.8211 14.026 26.0103 13.3215H26.1333C26.3632 13.3215 26.5836 13.2349 26.7462 13.0809C26.9087 12.9268 27 12.7179 27 12.5C27 12.2821 26.9087 12.0732 26.7462 11.9191C26.5836 11.7651 26.3632 11.6785 26.1333 11.6785ZM22.6667 14.143C22.3238 14.143 21.9887 14.0466 21.7037 13.8661C21.4186 13.6855 21.1965 13.4289 21.0653 13.1287C20.9341 12.8285 20.8998 12.4982 20.9666 12.1795C21.0335 11.8608 21.1986 11.568 21.441 11.3382C21.6834 11.1085 21.9923 10.952 22.3285 10.8886C22.6647 10.8252 23.0133 10.8577 23.33 10.9821C23.6467 11.1064 23.9174 11.317 24.1079 11.5872C24.2983 11.8574 24.4 12.1751 24.4 12.5C24.4 12.9357 24.2174 13.3536 23.8923 13.6618C23.5673 13.9699 23.1264 14.143 22.6667 14.143ZM26.1333 19.8934H17.3436C17.1544 19.1889 16.723 18.5642 16.1175 18.118C15.512 17.6719 14.7669 17.4297 14 17.4297C13.2331 17.4297 12.488 17.6719 11.8825 18.118C11.277 18.5642 10.8456 19.1889 10.6564 19.8934H1.86667C1.63681 19.8934 1.41637 19.9799 1.25384 20.134C1.09131 20.288 1 20.497 1 20.7148C1 20.9327 1.09131 21.1417 1.25384 21.2957C1.41637 21.4498 1.63681 21.5363 1.86667 21.5363H10.6564C10.8456 22.2408 11.277 22.8655 11.8825 23.3116C12.488 23.7578 13.2331 24 14 24C14.7669 24 15.512 23.7578 16.1175 23.3116C16.723 22.8655 17.1544 22.2408 17.3436 21.5363H26.1333C26.3632 21.5363 26.5836 21.4498 26.7462 21.2957C26.9087 21.1417 27 20.9327 27 20.7148C27 20.497 26.9087 20.288 26.7462 20.134C26.5836 19.9799 26.3632 19.8934 26.1333 19.8934ZM14 22.3578C13.6572 22.3578 13.3221 22.2614 13.037 22.0809C12.752 21.9004 12.5298 21.6438 12.3986 21.3436C12.2674 21.0434 12.2331 20.713 12.3 20.3943C12.3669 20.0756 12.5319 19.7829 12.7743 19.5531C13.0168 19.3233 13.3256 19.1668 13.6618 19.1034C13.9981 19.04 14.3466 19.0726 14.6633 19.1969C14.98 19.3213 15.2508 19.5319 15.4412 19.802C15.6317 20.0722 15.7333 20.3899 15.7333 20.7148C15.7333 21.1506 15.5507 21.5685 15.2257 21.8766C14.9006 22.1847 14.4597 22.3578 14 22.3578Z" fill="#F2F0EE" stroke="#F2F0EE"/>
</svg>
