<svg width="49" height="48" viewBox="0 0 49 48" fill="none" xmlns="http://www.w3.org/2000/svg">
<path d="M24.3116 0C18.5388 0.000242294 12.9544 2.07957 8.55764 5.86594C4.1609 9.6523 1.23874 14.8986 0.314009 20.6662C-0.610723 26.4337 0.522321 32.3461 3.5104 37.3455C6.49849 42.3448 11.1466 46.1049 16.6231 47.9529C17.8387 48.1683 18.2945 47.4301 18.2945 46.7841C18.2945 46.1997 18.2641 44.2618 18.2641 42.201C12.1558 43.3391 10.5756 40.6939 10.0893 39.3098C9.54981 37.9636 8.69453 36.7706 7.59741 35.834C6.74651 35.3726 5.53094 34.2345 7.567 34.2038C8.34445 34.2892 9.09011 34.563 9.74079 35.002C10.3915 35.4411 10.928 36.0324 11.3049 36.7259C11.6374 37.3305 12.0845 37.8628 12.6206 38.2922C13.1567 38.7216 13.7713 39.0397 14.429 39.2283C15.0868 39.4168 15.7749 39.4722 16.4538 39.3912C17.1327 39.3101 17.7892 39.0943 18.3856 38.756C18.4908 37.5051 19.0417 36.3354 19.9355 35.4649C14.5262 34.8498 8.87377 32.7273 8.87377 23.3152C8.83961 20.8696 9.7312 18.5035 11.3657 16.7021C10.6225 14.5766 10.7094 12.244 11.6088 10.1812C11.6088 10.1812 13.6448 9.53527 18.2945 12.7034C22.2725 11.5961 26.4722 11.5961 30.4502 12.7034C35.0998 9.50453 37.1359 10.1812 37.1359 10.1812C38.0354 12.244 38.1224 14.5766 37.379 16.7021C39.0184 18.5004 39.9108 20.8686 39.8709 23.3152C39.8709 32.7581 34.1881 34.8498 28.7788 35.4649C29.359 36.0601 29.8059 36.7748 30.089 37.5602C30.3722 38.3457 30.485 39.1837 30.4199 40.0172C30.4199 43.3085 30.3894 45.9536 30.3894 46.7842C30.3894 47.4301 30.8453 48.1991 32.0609 47.953C37.5277 46.0899 42.1625 42.321 45.1378 37.3191C48.1132 32.3172 49.2355 26.4078 48.3043 20.6459C47.3732 14.8839 44.4492 9.6444 40.0544 5.86265C35.6596 2.08089 30.08 0.00303874 24.3116 0Z" fill="#F2F0EE"/>
</svg>
