<svg width="34" height="40" viewBox="0 0 34 40" fill="none" xmlns="http://www.w3.org/2000/svg">
<path d="M6.45936 1.0853C6.16021 4.09932 4.64954 10.1274 1 10.1274" stroke="#F2F0EE" stroke-width="2" stroke-linecap="round"/>
<path d="M6.45932 16.6957C6.80053 14.2503 8.52364 9.35964 12.6864 9.35964" stroke="#F2F0EE" stroke-width="2" stroke-linecap="round"/>
<path d="M6.45932 1C6.80053 3.78655 8.52364 9.35964 12.6864 9.35964" stroke="#F2F0EE" stroke-width="2" stroke-linecap="round"/>
<path d="M6.45936 16.6957C6.16021 14.5062 4.64954 10.1274 1 10.1274" stroke="#F2F0EE" stroke-width="2" stroke-linecap="round"/>
<path d="M15.1063 24.2112C14.6502 26.3124 12.3469 30.5146 6.78259 30.5146" stroke="#F2F0EE" stroke-width="2" stroke-linecap="round"/>
<path d="M15.1063 39C15.4295 36.9258 17.0619 32.7774 21.0056 32.7774" stroke="#F2F0EE" stroke-width="2" stroke-linecap="round"/>
<path d="M15.1063 24.1304C15.4295 27.0128 17.0619 32.7774 21.0056 32.7774" stroke="#F2F0EE" stroke-width="2" stroke-linecap="round"/>
<path d="M15.1063 39C14.6502 36.1715 12.3469 30.5146 6.78259 30.5146" stroke="#F2F0EE" stroke-width="2" stroke-linecap="round"/>
<path d="M25.5582 5.2292C25.1631 8.71912 23.1679 15.699 18.3479 15.699" stroke="#F2F0EE" stroke-width="2" stroke-linecap="round"/>
<path d="M25.5583 23.3043C25.9533 19.4852 27.9485 11.8469 32.7686 11.8469" stroke="#F2F0EE" stroke-width="2" stroke-linecap="round"/>
<path d="M25.5583 5.13043C25.9533 7.36925 27.9485 11.8469 32.7686 11.8469" stroke="#F2F0EE" stroke-width="2" stroke-linecap="round"/>
<path d="M25.5582 23.3043C25.1631 20.8021 23.1679 15.7977 18.3479 15.7977" stroke="#F2F0EE" stroke-width="2" stroke-linecap="round"/>
</svg>
