<svg width="51" height="48" viewBox="0 0 51 48" fill="none" xmlns="http://www.w3.org/2000/svg">
<path d="M0.623352 5.57576C0.623352 3.95956 1.18553 2.62623 2.30984 1.57576C3.43415 0.525236 4.8958 0 6.6947 0C8.46151 0 9.89098 0.517139 10.9832 1.55152C12.1075 2.61818 12.6697 4.00805 12.6697 5.72121C12.6697 7.27273 12.1236 8.56562 11.0314 9.6C9.90707 10.6667 8.42937 11.2 6.59833 11.2H6.55015C4.78334 11.2 3.35387 10.6667 2.26165 9.6C1.16944 8.53333 0.623352 7.1919 0.623352 5.57576ZM1.24976 48V15.6121H11.9469V48H1.24976ZM17.8737 48H28.5708V29.9151C28.5708 28.7838 28.6994 27.9111 28.9563 27.297C29.406 26.198 30.0887 25.2687 31.0042 24.5091C31.9197 23.7495 33.0681 23.3697 34.4495 23.3697C38.0473 23.3697 39.8462 25.8101 39.8462 30.6909V48H50.5434V29.4303C50.5434 24.6464 49.419 21.0182 47.1704 18.5455C44.9217 16.0727 41.9503 14.8364 38.2561 14.8364C34.1122 14.8364 30.8837 16.6303 28.5708 20.2182V20.3152H28.5227L28.5708 20.2182V15.6121H17.8737C17.9379 16.6464 17.9701 19.8626 17.9701 25.2606C17.9701 30.6586 17.9379 38.2383 17.8737 48Z" fill="#F2F0EE"/>
</svg>
